<?xml version="1.0" encoding="UTF-8"?>
<svg width="17px" height="17px" viewBox="0 0 17 17" version="1.1" xmlns="http://www.w3.org/2000/svg" xmlns:xlink="http://www.w3.org/1999/xlink">
    <!-- Generator: Sketch 49.3 (51167) - http://www.bohemiancoding.com/sketch -->
    <title>Annotations delete</title>
    <desc>Created with Sketch.</desc>
    <defs></defs>
    <g id="Page-1" stroke="none" stroke-width="1" fill="none" fill-rule="evenodd">
        <g id="Step-1" transform="translate(-1403.000000, -150.000000)">
            <g id="Annotations-delete" transform="translate(1404.000000, 151.000000)">
                <g id="noun_Delete_2043544" transform="translate(3.000000, 2.000000)" fill="#1D1F23" fill-rule="nonzero">
                    <g id="Group">
                        <path d="M3.5147929,7.81793478 C3.71982249,7.81793478 3.88757396,7.64673913 3.88757396,7.4375 L3.88757396,4.24456522 C3.88757396,4.0326087 3.71982249,3.86413043 3.5147929,3.86413043 C3.30976331,3.86413043 3.14201183,4.03532609 3.14201183,4.24456522 L3.14201183,7.4375 C3.14201183,7.64673913 3.30976331,7.81793478 3.5147929,7.81793478 Z" id="Shape"></path>
                        <path d="M5.4852071,7.81793478 C5.69023669,7.81793478 5.85798817,7.64673913 5.85798817,7.4375 L5.85798817,4.24456522 C5.85798817,4.0326087 5.69023669,3.86413043 5.4852071,3.86413043 C5.28017751,3.86413043 5.11242604,4.03532609 5.11242604,4.24456522 L5.11242604,7.4375 C5.11242604,7.64673913 5.28017751,7.81793478 5.4852071,7.81793478 Z" id="Shape"></path>
                        <path d="M8.61390533,1.33152174 L6.17751479,1.33152174 L6.17751479,0.923913043 C6.17751479,0.41576087 5.78343195,0 5.28550296,0 L3.71715976,0 C3.21923077,0 2.82514793,0.41576087 2.82514793,0.923913043 L2.82514793,1.33152174 L0.388757396,1.33152174 C0.183727811,1.33152174 0.0159763314,1.50271739 0.0159763314,1.71195652 C0.0159763314,1.92119565 0.183727811,2.0923913 0.388757396,2.0923913 L1.17159763,2.0923913 L1.17159763,9.07608696 C1.17159763,9.58423913 1.57100592,10 2.06893491,10 L6.92840237,10 C7.42633136,10 7.82573964,9.58423913 7.82573964,9.07608696 L7.82573964,2.0923913 L8.6112426,2.0923913 C8.81627219,2.0923913 8.98402367,1.92119565 8.98402367,1.71195652 C8.98402367,1.50271739 8.82159763,1.33152174 8.61390533,1.33152174 Z M3.56538462,0.923913043 C3.56804734,0.83423913 3.62662722,0.760869565 3.71449704,0.760869565 L5.28284024,0.760869565 C5.37071006,0.760869565 5.42928994,0.83423913 5.42928994,0.923913043 L5.42928994,1.33152174 L3.56538462,1.33152174 L3.56538462,0.923913043 Z M7.08284024,9.07608696 C7.08284024,9.16576087 7.01893491,9.23913043 6.93106509,9.23913043 L2.06893491,9.23913043 C1.98106509,9.23913043 1.91715976,9.16576087 1.91715976,9.07608696 L1.91715976,2.0923913 L7.08284024,2.0923913 L7.08284024,9.07608696 Z" id="Shape"></path>
                    </g>
                </g>
                <circle id="Oval-5" stroke="#1D1F23" cx="7.5" cy="7.5" r="7.5"></circle>
            </g>
        </g>
    </g>
</svg>