<?xml version="1.0" encoding="UTF-8"?>
<svg width="21px" height="20px" viewBox="0 0 21 20" version="1.1" xmlns="http://www.w3.org/2000/svg" xmlns:xlink="http://www.w3.org/1999/xlink">
    <!-- Generator: Sketch 49.3 (51167) - http://www.bohemiancoding.com/sketch -->
    <title>Brightness</title>
    <desc>Created with Sketch.</desc>
    <defs></defs>
    <g id="Page-1" stroke="none" stroke-width="1" fill="none" fill-rule="evenodd">
        <g id="Step-1" transform="translate(-656.000000, -85.000000)" fill="#000000">
            <g id="Group" transform="translate(0.000000, 76.000000)">
                <g id="Brightness" transform="translate(656.000000, 9.000000)">
                    <path d="M18.8251041,8.80283319 L15.484347,8.80283319 C15.3507174,8.17922555 15.1057285,7.57788919 14.7716519,7.06563972 L17.1101829,4.68256615 C17.577888,4.21486013 17.577888,3.43535029 17.1101829,2.94537239 C16.6424767,2.47766636 15.8629668,2.47766636 15.372989,2.94537239 L13.0121875,5.32844566 C12.4776665,4.99437027 11.898601,4.74938147 11.2527219,4.59347926 L11.2527219,1.25272207 C11.2527219,0.584570656 10.6959293,0.027777778 10.0277774,0.027777778 C9.35962611,0.027777778 8.80283286,0.584570656 8.80283286,1.25272207 L8.80283286,4.59347926 C8.17922539,4.7271096 7.57788892,4.9720984 7.04336788,5.32844566 L4.70483775,2.94537239 C4.23713184,2.47766636 3.4576216,2.47766636 2.96764408,2.94537239 C2.49993802,3.41307841 2.49993802,4.19258855 2.96764408,4.68256615 L5.32844553,7.04336785 C4.99436988,7.57788919 4.74938127,8.15695368 4.5934791,8.80283319 L1.25272202,8.80283319 C0.584570612,8.80283319 0.027777778,9.3596264 0.027777778,10.0277778 C0.027777778,10.6959292 0.584570612,11.2527224 1.25272202,11.2527224 L4.5934791,11.2527224 C4.72710936,11.87633 4.99436988,12.477667 5.32844553,13.0121871 L2.96764408,15.3729888 C2.49993802,15.8406957 2.49993802,16.6202053 2.96764408,17.1101829 C3.21263299,17.3551723 3.52443673,17.4665304 3.83624076,17.4665304 C4.1480448,17.4665304 4.45984884,17.3551723 4.70483775,17.1101829 L7.06563949,14.7493812 C7.60016053,15.0834569 8.17922539,15.3284463 8.82510507,15.4620763 L8.82510507,18.8028332 C8.82510507,19.4709846 9.38189772,20.0277778 10.050049,20.0277778 C10.7182009,20.0277778 11.2749936,19.4709846 11.2749936,18.8028332 L11.2749936,15.4620763 C11.898601,15.3284463 12.4999381,15.0834569 13.0121875,14.7271093 L15.372989,17.087911 C15.6179779,17.3329004 15.9297816,17.4442586 16.2415854,17.4442586 C16.5533891,17.4442586 16.865194,17.3329004 17.1101829,17.087911 C17.577888,16.6202053 17.577888,15.8406957 17.1101829,15.3507181 L14.7493803,12.9899164 C15.0834568,12.4553951 15.3284457,11.87633 15.4620754,11.2527224 L18.8251041,11.2527224 C19.493256,11.2527224 20.0500486,10.6959292 20.0500486,10.0277778 C20.0500486,9.33735453 19.493256,8.80283319 18.8251041,8.80283319 Z M10.0277778,13.3685352 C8.17922528,13.3685352 6.68702031,11.8763301 6.68702031,10.0277778 C6.68702031,8.17922528 8.17922528,6.68702031 10.0277778,6.68702031 C11.8540584,6.68702031 13.3462635,8.15695359 13.3685352,9.98323439 C13.3685352,10.0055061 13.3685352,10.0277778 13.3685352,10.0277778 C13.3685352,10.0500495 13.3685352,10.0500495 13.3685352,10.0723212 C13.3462635,11.8986018 11.8540584,13.3685352 10.0277778,13.3685352 Z" id="Shape"></path>
                </g>
            </g>
        </g>
    </g>
</svg>