<?xml version="1.0" encoding="UTF-8"?>
<svg width="20px" height="20px" viewBox="0 0 20 20" version="1.1" xmlns="http://www.w3.org/2000/svg" xmlns:xlink="http://www.w3.org/1999/xlink">
    <!-- Generator: Sketch 49.3 (51167) - http://www.bohemiancoding.com/sketch -->
    <title>Contrast</title>
    <desc>Created with Sketch.</desc>
    <defs></defs>
    <g id="Page-1" stroke="none" stroke-width="1" fill="none" fill-rule="evenodd">
        <g id="Step-1" transform="translate(-718.000000, -85.000000)" fill="#000000">
            <g id="Group" transform="translate(0.000000, 76.000000)">
                <g id="Contrast" transform="translate(718.000000, 9.000000)">
                    <circle id="Oval" cx="10" cy="10" r="5"></circle>
                    <path d="M10,3 C10.5511811,3 11,2.55118114 11,2.00000006 L11,1.00000003 C11,0.448818907 10.5511811,0 10,0 C9.44881889,0 9,0.448818907 9,1.00000003 L9,2.00000006 C9,2.55118114 9.44881889,3 10,3 Z" id="Shape"></path>
                    <path d="M10,17 C9.44881889,17 9,17.4488189 9,18 L9,19.0000001 C9,19.5511811 9.44881889,20 10,20 C10.5511811,20 11,19.5511811 11,19.0000001 L11,18 C11,17.4488189 10.5511811,17 10,17 Z" id="Shape"></path>
                    <path d="M19.0000001,9 L18,9 C17.4488189,9 17,9.44881889 17,10 C17,10.5511811 17.4488189,11 18,11 L19.0000001,11 C19.5511811,11 20,10.5511811 20,10 C20,9.44881889 19.5511811,9 19.0000001,9 Z" id="Shape"></path>
                    <path d="M3,10 C3,9.44881889 2.55118114,9 2.00000006,9 L1.00000003,9 C0.448818907,9 0,9.44881889 0,10 C0,10.5511811 0.448818907,11 1.00000003,11 L2.00000006,11 C2.55118114,11 3,10.5511811 3,10 Z" id="Shape"></path>
                    <path d="M16.3622053,5.05118132 L17.0708669,4.34251974 C17.4606307,3.95275605 17.4606307,3.31889775 17.0708669,2.92913395 C16.6811031,2.53937015 16.0472448,2.53937015 15.657481,2.92913395 L14.9488195,3.63779538 C14.5590557,4.02755924 14.5590557,4.66141754 14.9488195,5.05118132 C15.3385833,5.4409451 15.9724416,5.4409451 16.3622053,5.05118132 Z" id="Shape"></path>
                    <path d="M3.63779538,14.9488195 L2.92913395,15.657481 C2.53937015,16.0472448 2.53937015,16.6811031 2.92913395,17.0708669 C3.31889775,17.4606307 3.95275605,17.4606307 4.34251974,17.0708669 L5.05118132,16.3622053 C5.4409451,15.9724416 5.4409451,15.3385833 5.05118132,14.9488195 C4.66141754,14.5590557 4.02755924,14.5590557 3.63779538,14.9488195 Z" id="Shape"></path>
                    <path d="M16.3622053,14.9488195 C15.9724416,14.5590557 15.3385833,14.5590557 14.9488195,14.9488195 C14.5590557,15.3385833 14.5590557,15.9724416 14.9488195,16.3622053 L15.657481,17.0708669 C16.0472448,17.4606307 16.6811031,17.4606307 17.0708669,17.0708669 C17.4606307,16.6811031 17.4606307,16.0472448 17.0708669,15.657481 L16.3622053,14.9488195 Z" id="Shape"></path>
                    <path d="M3.63779538,5.05118132 C4.02755924,5.4409451 4.66141754,5.4409451 5.05118132,5.05118132 C5.4409451,4.66141754 5.4409451,4.02755924 5.05118132,3.63779538 L4.34251974,2.92913395 C3.95275605,2.53937015 3.31889775,2.53937015 2.92913395,2.92913395 C2.53937015,3.31889775 2.53937015,3.95275605 2.92913395,4.34251974 L3.63779538,5.05118132 Z" id="Shape"></path>
                </g>
            </g>
        </g>
    </g>
</svg>