<?xml version="1.0" encoding="UTF-8"?>
<svg width="16px" height="20px" viewBox="0 0 16 20" version="1.1" xmlns="http://www.w3.org/2000/svg" xmlns:xlink="http://www.w3.org/1999/xlink">
    <!-- Generator: Sketch 49.3 (51167) - http://www.bohemiancoding.com/sketch -->
    <title>Delete</title>
    <desc>Created with Sketch.</desc>
    <defs></defs>
    <g id="Page-1" stroke="none" stroke-width="1" fill="none" fill-rule="evenodd">
        <g id="Step-1" transform="translate(-583.000000, -85.000000)" fill="#1D1F23">
            <g id="Group" transform="translate(0.000000, 76.000000)">
                <g id="Delete" transform="translate(583.000000, 9.000000)">
                    <path d="M12.7327084,4.4402134 L12.2407842,17.8613266 C12.2376141,17.9478196 12.1555692,18.0263157 12.0673994,18.0263157 L3.31721564,18.0263157 C3.23079842,18.0263157 3.14693599,17.9460467 3.14383078,17.8613266 L2.65190666,4.4402134 C2.63327422,3.93186614 2.20279344,3.53475454 1.69040084,3.55323991 C1.17800834,3.57172525 0.777736716,3.99880752 0.796369182,4.50715484 L1.2882933,17.9282685 C1.32770211,19.0034559 2.23139806,19.8684205 3.31721564,19.8684205 L12.0673994,19.8684205 C13.1547987,19.8684205 14.0568413,19.005397 14.0963219,17.9282685 L14.588246,4.50715484 C14.6068789,3.99880752 14.2066063,3.57172525 13.6942143,3.55323991 C13.1818215,3.53475454 12.7513412,3.93186614 12.7327084,4.4402134 Z" id="Shape"></path>
                    <path d="M7.02917759,7.10526353 L7.02917759,16.0526314 C7.02917759,16.4159769 7.32607105,16.7105264 7.69230769,16.7105264 C8.05854431,16.7105264 8.35543779,16.4159769 8.35543779,16.0526314 L8.35543779,7.10526353 C8.35543779,6.74191825 8.05854431,6.44736877 7.69230769,6.44736877 C7.32607105,6.44736877 7.02917759,6.74191825 7.02917759,7.10526353 Z" id="Shape"></path>
                    <path d="M3.97906665,7.12460476 L4.24431864,16.0719734 C4.25508564,16.4351615 4.56057914,16.7209244 4.92665735,16.7102423 C5.29273562,16.6995602 5.58077229,16.3964786 5.57000534,16.0332905 L5.30475333,7.08592177 C5.29398638,6.72273359 4.98849288,6.43697088 4.62241462,6.44765288 C4.25633633,6.45833488 3.96829965,6.76141657 3.97906665,7.12460476 Z" id="Shape"></path>
                    <path d="M10.0798624,7.08592177 L9.81461043,16.0332905 C9.80384343,16.3964786 10.0918801,16.6995602 10.4579584,16.7102423 C10.8240367,16.7209244 11.1295302,16.4351615 11.1402971,16.0719734 L11.4055491,7.12460476 C11.4163161,6.76141657 11.1282794,6.45833488 10.7622011,6.44765288 C10.3961229,6.43697088 10.0906294,6.72273359 10.0798624,7.08592177 Z" id="Shape"></path>
                    <path d="M1.06100796,4.73684201 L14.3236073,4.73684201 C14.8363388,4.73684201 15.2519893,4.32447268 15.2519893,3.81578941 C15.2519893,3.3071061 14.8363388,2.8947368 14.3236073,2.8947368 L1.06100796,2.8947368 C0.548276773,2.8947368 0.132625997,3.3071061 0.132625997,3.81578941 C0.132625997,4.32447268 0.548276773,4.73684201 1.06100796,4.73684201 Z" id="Shape"></path>
                    <path d="M5.94045054,3.38128287 L6.21347255,2.29781644 C6.25241939,2.14325847 6.47105471,1.97368429 6.63029228,1.97368429 L8.75432216,1.97368429 C8.91381577,1.97368429 9.13211139,2.14292608 9.17114231,2.29781644 L9.44416432,3.38128287 L11.2454895,2.93450673 L10.9724675,1.8510403 C10.7268726,0.876416724 9.76614833,0.13157895 8.75432216,0.13157895 L6.63029228,0.13157895 C5.61857084,0.13157895 4.65762158,0.876894285 4.4121472,1.8510403 L4.13912516,2.93450673 L5.94045054,3.38128287 Z" id="Shape"></path>
                </g>
            </g>
        </g>
    </g>
</svg>