<?xml version="1.0" encoding="UTF-8"?>
<svg width="20px" height="20px" viewBox="0 0 20 20" version="1.1" xmlns="http://www.w3.org/2000/svg" xmlns:xlink="http://www.w3.org/1999/xlink">
    <!-- Generator: Sketch 49.3 (51167) - http://www.bohemiancoding.com/sketch -->
    <title>draw</title>
    <desc>Created with Sketch.</desc>
    <defs></defs>
    <g id="Page-1" stroke="none" stroke-width="1" fill="none" fill-rule="evenodd">
        <g id="Step-1" transform="translate(-485.000000, -85.000000)" fill="#1D1F23">
            <g id="Group" transform="translate(0.000000, 76.000000)">
                <path d="M485.664795,20.9343262 C492.388916,14.2832845 496.347168,10.5227051 497.539551,9.65258789 C498.731934,8.7824707 499.874674,8.7824707 500.967773,9.65258789 C502.535563,11.1587321 503.706543,12.3031006 504.480713,13.0856934 C505.254883,13.8682861 505.136637,14.8859456 504.125977,16.1386719 L492.655029,27.2978516 L485,28.1142578 L485.664795,20.9343262 Z M487.022339,21.5891724 L486.45697,26.3996582 L491.757385,25.8482666 L492.137756,23.1480103 L490.03418,22.5673218 L489.305481,20.8587036 L487.022339,21.5891724 Z M491.081726,21.5458374 L493.250122,22.2772827 L492.838196,24.9623413 L503.070251,15.112793 C503.710999,14.4269613 503.063151,13.3260295 501.126709,11.8099976 C501.126709,11.8099976 497.778381,15.0552775 491.081726,21.5458374 Z" id="draw"></path>
            </g>
        </g>
    </g>
</svg>