<?xml version="1.0" encoding="UTF-8"?>
<svg width="26px" height="26px" viewBox="0 0 26 26" version="1.1" xmlns="http://www.w3.org/2000/svg" xmlns:xlink="http://www.w3.org/1999/xlink">
    <!-- Generator: Sketch 49.3 (51167) - http://www.bohemiancoding.com/sketch -->
    <title>edit</title>
    <desc>Created with Sketch.</desc>
    <defs></defs>
    <g id="Page-1" stroke="none" stroke-width="1" fill="none" fill-rule="evenodd">
        <g id="Screen-2" transform="translate(-428.000000, -217.000000)" fill="#1D1F23">
            <g id="Group" transform="translate(404.000000, 89.000000)">
                <path d="M49.0899993,133.025379 L44.8000003,128.880347 C43.6299999,127.749884 41.4200004,127.749884 40.25,128.880347 L25.04,143.450761 L24,153.1225 L34.0099998,151.992036 L49.0899993,137.421624 C49.6100004,136.919196 50,136.039947 50,135.286304 C50,134.407055 49.6100004,133.653414 49.0899993,133.025379 Z M32.9700003,146.85 L41.2899997,138.53 L42.9799995,140.22 L34.1400002,149.06 C33.8800002,148.28 33.4900002,147.5 32.9700003,146.85 Z M31.1499997,145.030001 C30.4999999,144.510001 29.72,144.120002 28.9400001,143.860001 L37.7799988,135.02 L39.4699988,136.71 L31.1499997,145.030001 Z M27.51,146.2 C29.7200002,146.589999 31.4100004,148.409999 31.8000004,150.489999 L26.8599999,151.009999 L27.51,146.2 Z M47.2700016,135.93 L44.8000013,138.4 L39.6000004,133.2 L42.0700007,130.73 C42.2000008,130.6 42.4600009,130.6 42.4600009,130.6 C42.5900008,130.6 42.7200009,130.6 42.9800009,130.73 L47.2700016,135.02 C47.4000015,135.15 47.4000015,135.41 47.4000015,135.54 C47.4000015,135.54 47.4000015,135.8 47.2700016,135.93 Z" id="edit"></path>
            </g>
        </g>
    </g>
</svg>