<?xml version="1.0" encoding="UTF-8"?>
<svg width="27px" height="15px" viewBox="0 0 27 15" version="1.1" xmlns="http://www.w3.org/2000/svg" xmlns:xlink="http://www.w3.org/1999/xlink">
    <!-- Generator: Sketch 51.2 (57519) - http://www.bohemiancoding.com/sketch -->
    <title>noun_View_2037692</title>
    <desc>Created with Sketch.</desc>
    <defs></defs>
    <g id="Page-1" stroke="none" stroke-width="1" fill="none" fill-rule="evenodd">
        <g id="noun_View_2037692" fill="#000000" fill-rule="nonzero">
            <g id="Group">
                <circle id="Oval" cx="9" cy="4.6875" r="2.00625"></circle>
                <path d="M17.55,4.275 C17.38125,4.10625 13.6875,0.01875 9,0.01875 C4.3125,0.01875 0.61875,4.10625 0.45,4.29375 L0.09375,4.6875 L0.45,5.1 C0.61875,5.26875 4.3125,9.35625 9,9.35625 C13.6875,9.35625 17.38125,5.26875 17.55,5.08125 L17.90625,4.66875 L17.55,4.275 Z M9,7.93125 C7.21875,7.93125 5.75625,6.46875 5.75625,4.6875 C5.75625,2.90625 7.21875,1.44375 9,1.44375 C10.78125,1.44375 12.24375,2.90625 12.24375,4.6875 C12.24375,6.46875 10.78125,7.93125 9,7.93125 Z M5.30625,2.175 C4.81875,2.8875 4.5375,3.75 4.5375,4.6875 C4.5375,5.625 4.81875,6.46875 5.30625,7.2 C3.675,6.39375 2.4,5.2875 1.78125,4.6875 C2.4,4.0875 3.675,2.98125 5.30625,2.175 Z M12.69375,7.2 C13.18125,6.4875 13.4625,5.625 13.4625,4.6875 C13.4625,3.76875 13.18125,2.90625 12.69375,2.175 C14.325,2.98125 15.6,4.0875 16.21875,4.6875 C15.6,5.2875 14.325,6.39375 12.69375,7.2 Z" id="Shape"></path>
            </g>
        </g>
    </g>
</svg>
