<?xml version="1.0" encoding="UTF-8"?>
<svg width="18px" height="10px" viewBox="0 0 18 10" version="1.1" xmlns="http://www.w3.org/2000/svg" xmlns:xlink="http://www.w3.org/1999/xlink">
    <!-- Generator: Sketch 51.2 (57519) - http://www.bohemiancoding.com/sketch -->
    <title>noun_View_1467648</title>
    <desc>Created with Sketch.</desc>
    <defs></defs>
    <g id="Page-1" stroke="none" stroke-width="1" fill="none" fill-rule="evenodd">
        <g id="noun_View_1467648" fill="#000000" fill-rule="nonzero">
            <g id="Group">
                <ellipse id="Oval" cx="9" cy="5" rx="2.85365854" ry="2.82608696"></ellipse>
                <path d="M9,0.0434782609 C2.74390244,0.0434782609 0.109756098,4.93478261 0.109756098,4.93478261 L0.109756098,5.04347826 C0.109756098,5.04347826 2.96341463,9.93478261 9,9.93478261 C15.2560976,9.93478261 17.8902439,5.04347826 17.8902439,5.04347826 L17.8902439,4.93478261 C17.8902439,4.95652174 15.0365854,0.0434782609 9,0.0434782609 Z M9,8.69565217 C6.93658537,8.69565217 5.26829268,7.04347826 5.26829268,5 C5.26829268,2.95652174 6.93658537,1.30434783 9,1.30434783 C11.0634146,1.30434783 12.7317073,2.95652174 12.7317073,5 C12.7317073,7.04347826 11.0634146,8.69565217 9,8.69565217 Z" id="Shape"></path>
            </g>
        </g>
    </g>
</svg>