<?xml version="1.0" encoding="UTF-8"?>
<svg width="19px" height="20px" viewBox="0 0 19 20" version="1.1" xmlns="http://www.w3.org/2000/svg" xmlns:xlink="http://www.w3.org/1999/xlink">
    <!-- Generator: Sketch 49.3 (51167) - http://www.bohemiancoding.com/sketch -->
    <title>Filters</title>
    <desc>Created with Sketch.</desc>
    <defs></defs>
    <g id="Page-1" stroke="none" stroke-width="1" fill="none" fill-rule="evenodd">
        <g id="Step-1" transform="translate(-919.000000, -85.000000)">
            <g id="Group" transform="translate(0.000000, 76.000000)">
                <g id="Filters" transform="translate(919.000000, 9.000000)">
                    <path d="M7.04715711,3.53747313 C7.41783705,3.53747313 7.78851709,3.53747313 8.15919722,3.53747313 C9.04035653,3.53747313 9.92363391,3.53747313 10.8047936,3.53747313 C11.8702339,3.53747313 12.9377925,3.53747313 14.0032324,3.53747313 C14.9309921,3.53747313 15.858751,3.53747313 16.7865099,3.53747313 C17.2334442,3.53747313 17.6824966,3.54389705 18.1294308,3.53747313 C18.1357856,3.53747313 18.1421396,3.53747313 18.1484943,3.53747313 C18.5911921,3.53747313 19.0169445,3.14346887 18.9957628,2.68094215 C18.974581,2.21627412 18.6229651,1.82441119 18.1484943,1.82441119 C17.7778141,1.82441119 17.4071346,1.82441119 17.0364544,1.82441119 C16.1552947,1.82441119 15.2720175,1.82441119 14.3908579,1.82441119 C13.3254179,1.82441119 12.257859,1.82441119 11.1924187,1.82441119 C10.2646598,1.82441119 9.33690064,1.82441119 8.40914133,1.82441119 C7.96220711,1.82441119 7.51315483,1.81798721 7.06622061,1.82441119 C7.05986614,1.82441119 7.05351158,1.82441119 7.04715711,1.82441119 C6.6044592,1.82441119 6.17870671,2.21841543 6.19988843,2.68094215 C6.22107014,3.14561022 6.57268663,3.53747313 7.04715711,3.53747313 Z" id="Shape" fill="#000000"></path>
                    <ellipse id="Oval-3" fill="#D8D8D8" cx="5.54166667" cy="2.4" rx="1.58333333" ry="1.6"></ellipse>
                    <ellipse id="Oval-3" fill="#D8D8D8" cx="13.4583333" cy="10.4" rx="1.58333333" ry="1.6"></ellipse>
                    <ellipse id="Oval-3" fill="#D8D8D8" cx="8.70833333" cy="17.6" rx="1.58333333" ry="1.6"></ellipse>
                    <path d="M0.862095874,3.5374733 C1.628874,3.5374733 2.39565218,3.5374733 3.16243024,3.5374733 C3.27045696,3.5374733 3.38060204,3.5374733 3.48862875,3.5374733 C3.93132667,3.5374733 4.35707919,3.14346898 4.33589732,2.68094225 C4.3147157,2.21627417 3.9630991,1.8244112 3.48862875,1.8244112 C2.72185069,1.8244112 1.95507238,1.8244112 1.18829432,1.8244112 C1.08026754,1.8244112 0.970122587,1.8244112 0.862095874,1.8244112 C0.419397987,1.8244112 -0.0063545147,2.21841549 0.0148272018,2.68094225 C0.0360089176,3.14561036 0.3876254,3.5374733 0.862095874,3.5374733 Z" id="Shape" fill="#000000"></path>
                    <path d="M5.26789313,3.62526783 C5.18952076,3.62526783 5.11114839,3.61884391 5.03277602,3.61027848 C5.10691216,3.62098511 5.18316633,3.63169175 5.2573023,3.64025718 C5.09632117,3.61670239 4.94169463,3.57387586 4.79130448,3.51177725 C4.85908602,3.53961475 4.9268674,3.56959314 4.99464894,3.59743064 C4.85696782,3.53747323 4.72987754,3.46038559 4.61125988,3.3704498 C4.66845059,3.41541754 4.72564114,3.46038559 4.78283185,3.50535333 C4.6578596,3.40685242 4.54771474,3.29550336 4.45027875,3.16916494 C4.49476043,3.22698083 4.53924211,3.28479672 4.58372363,3.34261261 C4.49264223,3.22269811 4.41850626,3.0920773 4.35919751,2.95503225 C4.38673361,3.02355478 4.41638806,3.0920773 4.44392431,3.16059951 C4.38037917,3.00856542 4.33801569,2.85224862 4.31683403,2.68950759 C4.32742486,2.76445403 4.33801569,2.84154199 4.34648848,2.91648843 C4.32742486,2.75803011 4.32742486,2.59957179 4.34648848,2.44111363 C4.33589749,2.51606007 4.32530666,2.59314788 4.31683403,2.66809432 C4.34013389,2.50535344 4.38249737,2.34903648 4.44392431,2.19700224 C4.41638806,2.26552476 4.38673361,2.33404713 4.35919751,2.40256965 C4.41850626,2.2633834 4.49476043,2.13490363 4.58372363,2.01498929 C4.53924211,2.07280518 4.49476043,2.13062107 4.45027875,2.18843696 C4.54771474,2.06209855 4.6578596,1.95074948 4.78283185,1.85224841 C4.72564114,1.89721631 4.66845059,1.94218421 4.61125988,1.98715211 C4.72987754,1.89507495 4.85908602,1.82012851 4.99464894,1.76017142 C4.9268674,1.78800861 4.85908602,1.81798715 4.79130448,1.8458245 C4.94169463,1.78158469 5.09632117,1.73875815 5.2573023,1.71734472 C5.18316633,1.72805152 5.10691216,1.73875815 5.03277602,1.74732343 C5.18952076,1.72805152 5.34626534,1.72805152 5.50301008,1.74732343 C5.42887411,1.73661679 5.35261994,1.72591016 5.27848396,1.71734472 C5.4394651,1.74089935 5.59409164,1.78372589 5.74448178,1.8458245 C5.6767004,1.81798715 5.60891871,1.78800861 5.54113733,1.76017142 C5.6788186,1.82012851 5.80590888,1.89721631 5.92452638,1.98715211 C5.86733567,1.94218421 5.81014497,1.89721631 5.75295457,1.85224841 C5.87792666,1.95074948 5.98807168,2.06209855 6.08550751,2.18843696 C6.04102599,2.13062107 5.99654416,2.07280518 5.95206264,2.01498929 C6.04314388,2.13490363 6.11728016,2.26552476 6.17658875,2.40256965 C6.1490525,2.33404713 6.11939805,2.26552476 6.09186211,2.19700224 C6.15540709,2.34903648 6.19777042,2.50535344 6.21895239,2.66809432 C6.2083614,2.59314788 6.19777042,2.51606007 6.18929794,2.44111363 C6.2083614,2.59957179 6.2083614,2.75803011 6.18929794,2.91648843 C6.19988861,2.84154199 6.2104796,2.76445403 6.21895239,2.68950759 C6.19565253,2.85224862 6.15328889,3.00856542 6.09186211,3.16059951 C6.11939805,3.0920773 6.1490525,3.02355478 6.17658875,2.95503225 C6.11728016,3.0942185 6.04102599,3.22269811 5.95206264,3.34261261 C5.99654416,3.28479672 6.04102599,3.22698083 6.08550751,3.16916494 C5.98807168,3.29550336 5.87792666,3.40685242 5.75295457,3.50535333 C5.81014497,3.46038559 5.86733567,3.41541754 5.92452638,3.3704498 C5.80590888,3.46252679 5.6767004,3.53747323 5.54113733,3.59743064 C5.60891871,3.56959314 5.6767004,3.53961475 5.74448178,3.51177725 C5.59409164,3.57601737 5.4394651,3.61884391 5.27848396,3.64025718 C5.35261994,3.62955055 5.42887411,3.61884391 5.50301008,3.61027848 C5.42463771,3.61884391 5.34626534,3.62526783 5.26789313,3.62526783 C5.04972145,3.62740903 4.82307713,3.71948634 4.66845059,3.87580314 C4.52229668,4.02355482 4.41003362,4.26766622 4.42062445,4.48179891 C4.44180612,4.9421842 4.79342268,5.34261271 5.26789313,5.33832999 C5.77837263,5.33404728 6.31850642,5.18629559 6.73578633,4.88222711 C7.00903036,4.68308377 7.21449302,4.47751619 7.41571928,4.20556761 C7.56610942,4.00000004 7.66989985,3.77301951 7.75674501,3.53319052 C7.93890749,3.04068533 7.941026,2.45610283 7.80122653,1.9550322 C7.66566377,1.47109213 7.38182874,0.993576052 6.99420329,0.672376896 C6.73366813,0.458244126 6.49007823,0.310492521 6.17870695,0.184154186 C5.93723557,0.0856531059 5.6788186,0.0428265528 5.41616524,0.0214132768 C4.90568574,-0.021413277 4.35284292,0.124197006 3.91438135,0.394004279 C3.48862882,0.655246265 3.11159424,1.04925058 2.90401342,1.50963595 C2.83835008,1.65524627 2.77480493,1.80299796 2.7324415,1.9550322 C2.68795989,2.11349036 2.66889634,2.2762314 2.6498328,2.43897227 C2.61806022,2.71306206 2.64559645,2.98715215 2.69855075,3.25695954 C2.80445933,3.79229126 3.12006695,4.33404723 3.53946493,4.68094225 C3.81482732,4.90792309 4.07324429,5.0620987 4.40579723,5.19057831 C4.67692322,5.29550346 4.97982171,5.33618848 5.26789313,5.33832999 C5.71059094,5.34261271 6.13634363,4.9421842 6.11516197,4.48179891 C6.09397999,4.01498939 5.74236358,3.62955055 5.26789313,3.62526783 Z" id="Shape" fill="#000000"></path>
                    <path d="M15.3080269,10.8608139 C16.1383502,10.8608139 16.9686732,10.8608139 17.7968783,10.8608139 C17.9133777,10.8608139 18.0298772,10.8608139 18.1463767,10.8608139 C18.5890745,10.8608139 19.0148268,10.4668095 18.9936453,10.0042828 C18.9724636,9.53961462 18.6208471,9.14775162 18.1463767,9.14775162 C17.3160535,9.14775162 16.4857302,9.14775162 15.6575252,9.14775162 C15.5410258,9.14775162 15.4245263,9.14775162 15.3080269,9.14775162 C14.865329,9.14775162 14.4395766,9.54175595 14.4607583,10.0042828 C14.48194,10.4689509 14.8335565,10.8608139 15.3080269,10.8608139 Z" id="Shape" fill="#000000"></path>
                    <path d="M0.862095923,10.8608137 C1.22430322,10.8608137 1.58862879,10.8608137 1.95083618,10.8608137 C2.81505027,10.8608137 3.67926435,10.8608137 4.54347844,10.8608137 C5.59197327,10.8608137 6.64046847,10.8608137 7.68896367,10.8608137 C8.59554072,10.8608137 9.50211852,10.8608137 10.4086956,10.8608137 C10.8492759,10.8608137 11.2898555,10.8672377 11.7304351,10.8608137 C11.7367894,10.8608137 11.7431437,10.8608137 11.7494987,10.8608137 C12.1921964,10.8608137 12.6179493,10.4668095 12.5967669,10.0042828 C12.5755852,9.53961472 12.2239693,9.1477518 11.7494987,9.1477518 C11.3872915,9.1477518 11.0229654,9.1477518 10.6607582,9.1477518 C9.79654453,9.1477518 8.93233007,9.1477518 8.06811635,9.1477518 C7.01962115,9.1477518 5.97112595,9.1477518 4.92263113,9.1477518 C4.0160537,9.1477518 3.10947609,9.1477518 2.20289867,9.1477518 C1.76231888,9.1477518 1.32173919,9.14132782 0.881159406,9.1477518 C0.874804943,9.1477518 0.868450386,9.1477518 0.862095923,9.1477518 C0.419397999,9.1477518 -0.00635451588,9.54175604 0.0148272018,10.0042828 C0.0360089186,10.4689508 0.387625426,10.8608137 0.862095923,10.8608137 Z" id="Shape" fill="#000000"></path>
                    <path d="M13.5287623,10.9486082 C13.45039,10.9486082 13.3720176,10.9421842 13.2936453,10.9336188 C13.3677813,10.9443254 13.4440354,10.9550321 13.5181714,10.9635975 C13.3571904,10.9400427 13.2025639,10.8972162 13.0521736,10.8351176 C13.1199551,10.8629551 13.1877367,10.8929335 13.2555182,10.920771 C13.1178369,10.8608136 12.9907467,10.7837259 12.8721291,10.6937901 C12.9293196,10.7387579 12.9865104,10.7837259 13.0437009,10.8286937 C12.9187289,10.7301928 12.808584,10.6188437 12.7111481,10.4925053 C12.7556296,10.5503212 12.8001113,10.6081371 12.8445928,10.6659529 C12.7535114,10.5460385 12.6793754,10.4154176 12.6200667,10.2783726 C12.6476028,10.3468951 12.6772573,10.4154176 12.7047935,10.4839398 C12.6412483,10.3319058 12.5988849,10.175589 12.5777032,10.0128479 C12.5882941,10.0877944 12.5988849,10.1648823 12.6073576,10.2398288 C12.5882941,10.0813705 12.5882941,9.92291214 12.6073576,9.76445398 C12.5967668,9.83940042 12.5861759,9.91648822 12.5777032,9.99143466 C12.6010031,9.82869379 12.6433665,9.67237683 12.7047935,9.52034259 C12.6772573,9.58886511 12.6476028,9.65738748 12.6200667,9.72591 C12.6793754,9.58672376 12.7556296,9.45824398 12.8445928,9.33832965 C12.8001113,9.39614554 12.7556296,9.45396143 12.7111481,9.51177732 C12.808584,9.3854389 12.9187289,9.27408984 13.0437009,9.17558877 C12.9865104,9.22055667 12.9293196,9.26552457 12.8721291,9.31049246 C12.9907467,9.21841531 13.1199551,9.14346887 13.2555182,9.08351178 C13.1877367,9.11134897 13.1199551,9.14132751 13.0521736,9.16916486 C13.2025639,9.10492505 13.3571904,9.06209851 13.5181714,9.04068508 C13.4440354,9.05139188 13.3677813,9.06209851 13.2936453,9.07066379 C13.45039,9.05139188 13.6071346,9.05139188 13.7638793,9.07066379 C13.6897433,9.05995715 13.6134893,9.04925052 13.5393533,9.04068508 C13.7003343,9.06423971 13.8549609,9.10706625 14.0053509,9.16916486 C13.9375696,9.14132751 13.869788,9.11134897 13.8020064,9.08351178 C13.9396876,9.14346887 14.0667778,9.22055667 14.1853956,9.31049246 C14.1282051,9.26552457 14.0710142,9.22055667 14.0138236,9.17558877 C14.1387958,9.27408984 14.2489409,9.3854389 14.3463766,9.51177732 C14.3018951,9.45396143 14.2574133,9.39614554 14.2129318,9.33832965 C14.3040131,9.45824398 14.3781491,9.58886511 14.437458,9.72591 C14.4099219,9.65738748 14.3802674,9.58886511 14.352731,9.52034259 C14.4162763,9.67237683 14.4586398,9.82869379 14.4798215,9.99143466 C14.4692305,9.91648822 14.4586398,9.83940042 14.4501671,9.76445398 C14.4692305,9.92291214 14.4692305,10.0813705 14.4501671,10.2398288 C14.4607578,10.1648823 14.4713488,10.0877944 14.4798215,10.0128479 C14.4565214,10.175589 14.4141582,10.3319058 14.352731,10.4839398 C14.3802674,10.4154176 14.4099219,10.3468951 14.437458,10.2783726 C14.3781491,10.4175588 14.3018951,10.5460385 14.2129318,10.6659529 C14.2574133,10.6081371 14.3018951,10.5503212 14.3463766,10.4925053 C14.2489409,10.6188437 14.1387958,10.7301928 14.0138236,10.8286937 C14.0710142,10.7837259 14.1282051,10.7387579 14.1853956,10.6937901 C14.0667778,10.7858671 13.9375696,10.8608136 13.8020064,10.920771 C13.869788,10.8929335 13.9375696,10.8629551 14.0053509,10.8351176 C13.8549609,10.8993577 13.7003343,10.9421842 13.5393533,10.9635975 C13.6134893,10.9528909 13.6897433,10.9421842 13.7638793,10.9336188 C13.6855069,10.9421842 13.6071346,10.9486082 13.5287623,10.9486082 C13.3105907,10.9507494 13.0839463,11.0428267 12.9293196,11.1991435 C12.7831659,11.3468951 12.6709027,11.5910065 12.6814936,11.8051392 C12.7026754,12.2655245 13.0542918,12.665953 13.5287623,12.6616703 C14.0392417,12.6573876 14.5793756,12.5096359 14.9966553,12.2055674 C15.2698994,12.0064241 15.4753623,11.8008565 15.6765885,11.5289079 C15.8269787,11.3233404 15.9307692,11.0963598 16.0176142,10.8565308 C16.1997769,10.3640257 16.2018953,9.77944317 16.0620957,9.27837256 C15.9265328,8.79443249 15.6426976,8.31691642 15.2550724,7.99571727 C14.9945373,7.78158451 14.7509473,7.6338329 14.4395763,7.50749457 C14.1938683,7.40899349 13.9375696,7.36616694 13.6727979,7.34475366 C13.1623186,7.30192711 12.6094758,7.44753739 12.1710142,7.71734466 C11.7452617,7.97858664 11.3682271,8.37259096 11.1606463,8.83297631 C11.0949829,8.97858664 11.0314378,9.12633832 10.9890743,9.27837256 C10.9445927,9.43683072 10.9255292,9.59957175 10.9064656,9.76231262 C10.8746931,10.0364024 10.9022293,10.3104925 10.9551836,10.5802999 C11.0610922,11.1156316 11.3766998,11.6573875 11.7960978,12.0042826 C12.0714601,12.2312634 12.329877,12.385439 12.66243,12.5139186 C12.933556,12.6188438 13.2364546,12.6595288 13.5245259,12.6616703 C13.9672238,12.665953 14.3929765,12.2655245 14.3717947,11.8051392 C14.3548493,11.3383297 14.0032329,10.9528909 13.5287623,10.9486082 Z" id="Shape" fill="#000000"></path>
                    <path d="M10.4362316,18.1841551 C10.6904122,18.1841551 10.9467111,18.1841551 11.2008916,18.1841551 C11.8130432,18.1841551 12.427313,18.1841551 13.0394648,18.1841551 C13.7808246,18.1841551 14.5243032,18.1841551 15.2656633,18.1841551 C15.9074694,18.1841551 16.5492749,18.1841551 17.1910809,18.1841551 C17.5045707,18.1841551 17.81806,18.190579 18.1315492,18.1841551 C18.1357855,18.1841551 18.1400223,18.1841551 18.1463768,18.1841551 C18.5890747,18.1841551 19.0148275,17.7901507 18.9936454,17.3276237 C18.9724634,16.8629555 18.6208469,16.4710924 18.1463768,16.4710924 C17.8921963,16.4710924 17.635897,16.4710924 17.3817165,16.4710924 C16.769565,16.4710924 16.1552955,16.4710924 15.5431435,16.4710924 C14.8017833,16.4710924 14.0583053,16.4710924 13.3169452,16.4710924 C12.6751391,16.4710924 12.0333331,16.4710924 11.391527,16.4710924 C11.0780376,16.4710924 10.7645483,16.4646684 10.4510588,16.4710924 C10.4468225,16.4710924 10.4425862,16.4710924 10.4362316,16.4710924 C9.99353374,16.4710924 9.56778123,16.8650968 9.58896295,17.3276237 C9.61014467,17.792292 9.96176118,18.1841551 10.4362316,18.1841551 Z" id="Shape" fill="#000000"></path>
                    <path d="M0.862095854,18.1841537 C1.53779265,18.1841537 2.21348944,18.1841537 2.89130419,18.1841537 C3.97369009,18.1841537 5.05395746,18.1841537 6.13634335,18.1841537 C6.38416918,18.1841537 6.63199547,18.1841537 6.87770323,18.1841537 C7.32040127,18.1841537 7.74615382,17.7901496 7.72497173,17.327623 C7.70379009,16.8629551 7.35217372,16.4710922 6.87770323,16.4710922 C6.20200632,16.4710922 5.52630987,16.4710922 4.84849489,16.4710922 C3.76610922,16.4710922 2.68584163,16.4710922 1.60345596,16.4710922 C1.35562979,16.4710922 1.10780373,16.4710922 0.862095854,16.4710922 C0.419397989,16.4710922 -0.00635451356,16.8650964 0.0148272017,17.327623 C0.0360089173,17.7922909 0.387625397,18.1841537 0.862095854,18.1841537 Z" id="Shape" fill="#000000"></path>
                    <path d="M8.65696732,18.2719475 C8.57859501,18.2719475 8.50022269,18.2655236 8.42185038,18.2569581 C8.49598634,18.2676648 8.57224048,18.2783714 8.64637645,18.2869368 C8.48539547,18.2633821 8.33076902,18.2205555 8.18037876,18.1584569 C8.2481602,18.1862944 8.31594179,18.2162728 8.38372323,18.2441103 C8.24604202,18.1841529 8.11895184,18.1070653 8.00033421,18.0171295 C8.05752477,18.0620972 8.1147155,18.1070653 8.17190606,18.152033 C8.04693406,18.0535321 7.93678912,17.9421831 7.83935323,17.8158447 C7.88383475,17.8736606 7.92831642,17.9314764 7.97279794,17.9892923 C7.88171657,17.8693778 7.80758061,17.738757 7.74827187,17.601712 C7.77580799,17.6702345 7.80546243,17.738757 7.83299871,17.8072792 C7.76945346,17.6552452 7.72709012,17.4989284 7.70590837,17.3361874 C7.71649925,17.4111338 7.72709012,17.4882218 7.73556282,17.5631682 C7.71649925,17.4047099 7.71649925,17.2462516 7.73556282,17.0877935 C7.72497195,17.1627399 7.71438107,17.2398277 7.70590837,17.3147741 C7.7292083,17.1520333 7.77157164,16.9957163 7.83299871,16.8436821 C7.80546243,16.9122046 7.77580799,16.980727 7.74827187,17.0492495 C7.80758061,16.9100633 7.88383475,16.7815835 7.97279794,16.6616692 C7.92831642,16.7194851 7.88383475,16.777301 7.83935323,16.8351168 C7.93678912,16.7087785 8.04693406,16.5974294 8.17190606,16.4989284 C8.1147155,16.5438962 8.05752477,16.5888641 8.00033421,16.633832 C8.11895184,16.5417549 8.2481602,16.4668085 8.38372323,16.4068514 C8.31594179,16.4346886 8.2481602,16.4646671 8.18037876,16.4925044 C8.33076902,16.4282646 8.48539547,16.3854381 8.64637645,16.3640247 C8.57224048,16.3747315 8.49598634,16.3854381 8.42185038,16.3940034 C8.57859501,16.3747315 8.73533963,16.3747315 8.89208426,16.3940034 C8.8179483,16.3832968 8.74169431,16.3725901 8.66755835,16.3640247 C8.82853933,16.3875793 8.98316594,16.4304058 9.13355588,16.4925044 C9.0657746,16.4646671 8.997993,16.4346886 8.93021141,16.4068514 C9.06789262,16.4668085 9.19498279,16.5438962 9.31360059,16.633832 C9.25641002,16.5888641 9.19921914,16.5438962 9.14202858,16.4989284 C9.26700074,16.5974294 9.37714583,16.7087785 9.47458156,16.8351168 C9.43010005,16.777301 9.38561822,16.7194851 9.3411367,16.6616692 C9.43221807,16.7815835 9.50635403,16.9122046 9.56566293,17.0492495 C9.53812681,16.980727 9.50847236,16.9122046 9.48093593,16.8436821 C9.54448118,16.9957163 9.58684467,17.1520333 9.60802642,17.3147741 C9.59743539,17.2398277 9.58684467,17.1627399 9.57837198,17.0877935 C9.59743539,17.2462516 9.59743539,17.4047099 9.57837198,17.5631682 C9.58896269,17.4882218 9.59955372,17.4111338 9.60802642,17.3361874 C9.58472634,17.4989284 9.54236316,17.6552452 9.48093593,17.8072792 C9.50847236,17.738757 9.53812681,17.6702345 9.56566293,17.601712 C9.50635403,17.7408982 9.43010005,17.8693778 9.3411367,17.9892923 C9.38561822,17.9314764 9.43010005,17.8736606 9.47458156,17.8158447 C9.37714583,17.9421831 9.26700074,18.0535321 9.14202858,18.152033 C9.19921914,18.1070653 9.25641002,18.0620972 9.31360059,18.0171295 C9.19498279,18.1092065 9.0657746,18.1841529 8.93021141,18.2441103 C8.997993,18.2162728 9.0657746,18.1862944 9.13355588,18.1584569 C8.98316594,18.222697 8.82853933,18.2655236 8.66755835,18.2869368 C8.74169431,18.2762302 8.8179483,18.2655236 8.89208426,18.2569581 C8.81371195,18.2655236 8.73533963,18.2719475 8.65696732,18.2719475 C8.43879578,18.2740887 8.21215138,18.366166 8.05752477,18.5224828 C7.91137102,18.6702344 7.79910791,18.9143458 7.80969878,19.1284784 C7.83088053,19.5888636 8.18249693,19.9892921 8.65696732,19.9850094 C9.16744668,19.9807267 9.70758049,19.832975 10.1248602,19.5289066 C10.3981042,19.3297633 10.603567,19.1241957 10.8047932,18.8522472 C10.9551834,18.6466796 11.0589739,18.4196991 11.1458189,18.1798702 C11.3279816,17.6873651 11.3300999,17.1027827 11.1903004,16.6017121 C11.0547375,16.1177721 10.7709024,15.6402561 10.3832772,15.319057 C10.1227421,15.1049243 9.87915218,14.9571727 9.56778126,14.8308344 C9.32207329,14.7323333 9.0657746,14.6895068 8.8010029,14.6680935 C8.2905237,14.625267 7.737681,14.7708772 7.29921943,15.0406844 C6.87346698,15.3019264 6.49643245,15.6959307 6.28885164,16.1563159 C6.22318832,16.3019262 6.15964318,16.4496779 6.11727975,16.6017121 C6.07279815,16.7601703 6.0537346,16.9229113 6.03467106,17.0856521 C6.00289849,17.3597419 6.03043472,17.6338319 6.083389,17.9036393 C6.18929758,18.4389709 6.50490514,18.9807268 6.9243031,19.3276217 C7.19966536,19.5546025 7.45808223,19.7087781 7.79063521,19.8372577 C8.06176112,19.9421828 8.36465966,19.9828679 8.65273097,19.9850094 C9.09542873,19.9892921 9.52118141,19.5888636 9.49999966,19.1284784 C9.48305426,18.661669 9.13143786,18.2762302 8.65696732,18.2719475 Z" id="Shape" fill="#000000"></path>
                </g>
            </g>
        </g>
    </g>
</svg>