<?xml version="1.0" encoding="UTF-8"?>
<svg width="25px" height="25px" viewBox="0 0 25 25" version="1.1" xmlns="http://www.w3.org/2000/svg" xmlns:xlink="http://www.w3.org/1999/xlink">
    <!-- Generator: Sketch 49.3 (51167) - http://www.bohemiancoding.com/sketch -->
    <title>info</title>
    <desc>Created with Sketch.</desc>
    <defs></defs>
    <g id="Page-1" stroke="none" stroke-width="1" fill="none" fill-rule="evenodd">
        <g id="Step-1" transform="translate(-1229.000000, -24.000000)" fill="#1D1F23" fill-rule="nonzero">
            <g id="info" transform="translate(1229.000000, 24.000000)">
                <path d="M12.6925454,0.00162175632 C12.6664232,-0.00118720803 12.6436717,0.000217274149 12.6178305,0.00162175632 C5.65810909,0.0431944287 0,5.64595472 0,12.4995468 C0,19.3542626 5.66681647,24.9626408 12.6279423,24.997191 C12.645357,24.9985955 12.6782203,25 12.6953542,25 C12.6967586,25 12.698163,24.997191 12.698163,24.997191 C19.4823325,24.9626408 25,19.3559479 25,12.4995468 C24.9997191,5.64455024 19.4820516,0.0361720178 12.6925454,0.00162175632 Z M12.7009719,23.5292263 C12.6810292,23.5264173 12.6605247,23.5264173 12.640582,23.5264173 C6.48109657,23.4963614 1.47042301,18.5483707 1.47042301,12.4995468 C1.47042301,6.45044211 6.48109657,1.50273231 12.6922645,1.47267639 C18.6663671,1.50273231 23.5290152,6.45044211 23.5290152,12.4995468 C23.5292961,18.5444381 18.6722656,23.4904626 12.7009719,23.5292263 Z" id="Shape"></path>
                <polygon id="Shape" points="11.9777924 10 11 10 11 18 12.00908 18 13 18 13 10"></polygon>
                <path d="M12.0134529,7.0056812 L12.0134529,7.00218508 C12.0112654,7.00218508 12.0112654,7 12.0077655,7 C12.0044843,7 12.0009844,7.00218508 11.9955157,7.00218508 C11.9922345,7.00218508 11.9887346,7 11.9865471,7 L11.9865471,7.00458866 C11.3825878,7.01573255 11.0124686,7.44247788 11,8.00120179 C11,8.53741943 11.3725254,8.97093849 11.9865471,8.9943188 L11.9865471,9 C11.9922345,9 11.9977032,9 12.0044843,9 C12.0066718,9 12.0077655,8.99781492 12.009078,8.99781492 C12.0112654,8.99781492 12.0136717,9 12.0136717,9 L12.0136717,8.99781492 C12.6130373,8.99213373 13,8.54965585 13,8.00010925 C12.9995625,7.44684803 12.6104123,7.02228777 12.0134529,7.0056812 Z" id="Shape"></path>
            </g>
        </g>
    </g>
</svg>