<?xml version="1.0" encoding="UTF-8"?>
<svg width="20px" height="20px" viewBox="0 0 20 20" version="1.1" xmlns="http://www.w3.org/2000/svg" xmlns:xlink="http://www.w3.org/1999/xlink">
    <!-- Generator: Sketch 49.3 (51167) - http://www.bohemiancoding.com/sketch -->
    <title>Pan</title>
    <desc>Created with Sketch.</desc>
    <defs></defs>
    <g id="Page-1" stroke="none" stroke-width="1" fill="none" fill-rule="evenodd">
        <g id="Step-1" transform="translate(-346.000000, -84.000000)" fill="#000000" fill-rule="nonzero">
            <g id="Group" transform="translate(0.000000, 76.000000)">
                <g id="Pan" transform="translate(346.000000, 8.000000)">
                    <path d="M20,10 L16.25,6.25 L16.25,8.75 L12.5,8.75 L12.5,11.25 L16.25,11.25 L16.25,13.75 L20,10 Z M7.5,8.75 L3.75,8.75 L3.75,6.25 L0,10 L3.75,13.75 L3.75,11.25 L7.5,11.25 L7.5,8.75 Z M8.75,7.5 L11.25,7.5 L11.25,3.75 L13.75,3.75 L10,0 L6.25,3.75 L8.75,3.75 L8.75,7.5 Z M11.25,12.5 L8.75,12.5 L8.75,16.25 L6.25,16.25 L10,20 L13.75,16.25 L11.25,16.25 L11.25,12.5 Z" id="Shape"></path>
                </g>
            </g>
        </g>
    </g>
</svg>