<?xml version="1.0" encoding="UTF-8"?>
<svg width="15px" height="20px" viewBox="0 0 15 20" version="1.1" xmlns="http://www.w3.org/2000/svg" xmlns:xlink="http://www.w3.org/1999/xlink">
    <!-- Generator: Sketch 49.3 (51167) - http://www.bohemiancoding.com/sketch -->
    <title>Pt. select</title>
    <desc>Created with Sketch.</desc>
    <defs></defs>
    <g id="Page-1" stroke="none" stroke-width="1" fill="none" fill-rule="evenodd">
        <g id="Step-1" transform="translate(-534.000000, -85.000000)" fill="#1D1F23">
            <g id="Group" transform="translate(0.000000, 76.000000)">
                <g id="Pt.-select" transform="translate(534.000000, 9.000000)">
                    <path d="M8.70926774,19.8315855 C8.38717548,19.8315855 8.07513037,19.6625509 7.90860508,19.3639537 L5.63082574,15.2760904 L2.17823452,17.1601771 C1.90272115,17.3108324 1.56784326,17.3102301 1.29293889,17.15837 C1.01803463,17.0068117 0.841158138,16.7256897 0.825023113,16.4144373 L0.0334934587,1.00487924 C0.0158362577,0.659578855 0.198496948,0.334466172 0.504453625,0.167540846 C0.810714708,0.00061551963 1.18577802,0.0211045498 1.47133756,0.219968656 L14.217705,9.10377086 C14.4752565,9.28304954 14.6207772,9.58104439 14.6037282,9.89229738 C14.5866801,10.2035498 14.4085859,10.4837677 14.1330726,10.6341201 L10.6804811,12.5191109 L12.9591734,16.6066723 C13.0760762,16.8163837 13.1040834,17.0640595 13.036804,17.2942602 C12.9695237,17.5244608 12.8127398,17.7191065 12.6002445,17.8348091 L9.14887083,19.718594 C9.00943991,19.7951276 8.85844006,19.8315855 8.70926774,19.8315855 Z M5.98956741,13.2187891 C6.31171497,13.2187891 6.62381421,13.3887887 6.79036864,13.6890914 L9.06854177,17.800304 L10.9207377,16.7839404 L8.64165074,12.6727279 C8.52472749,12.4618188 8.49671487,12.2127277 8.56400633,11.981516 C8.63129839,11.7496974 8.78810911,11.5542428 9.00033704,11.4375762 L11.9745676,9.80515236 L1.95358973,2.78242478 L2.57565706,14.9639405 L5.54958333,13.3321222 C5.68934302,13.2554556 5.84067325,13.2187891 5.98956741,13.2187891 Z" id="Shape"></path>
                </g>
            </g>
        </g>
    </g>
</svg>