<?xml version="1.0" encoding="UTF-8"?>
<svg width="19px" height="19px" viewBox="0 0 19 19" version="1.1" xmlns="http://www.w3.org/2000/svg" xmlns:xlink="http://www.w3.org/1999/xlink">
    <!-- Generator: Sketch 49.3 (51167) - http://www.bohemiancoding.com/sketch -->
    <title>Redo</title>
    <desc>Created with Sketch.</desc>
    <defs></defs>
    <g id="Page-1" stroke="none" stroke-width="1" fill="none" fill-rule="evenodd">
        <g id="Step-1" transform="translate(-135.000000, -84.000000)" fill="#1D1F23">
            <g id="Group" transform="translate(0.000000, 76.000000)">
                <path d="M153.999941,25.8124413 C153.999941,26.4681522 153.468785,26.999941 152.812441,26.999941 C152.156097,26.999941 151.624942,26.4681522 151.624942,25.8124413 C151.624942,17.3561772 144.007,16.4291886 139.06869,16.3270113 L142.964534,20.2228545 C143.428344,20.6866648 143.428344,21.4382201 142.964534,21.9020315 C142.732523,22.1340425 142.428733,22.2499422 142.124945,22.2499422 C141.821156,22.2499422 141.517368,22.1340425 141.285357,21.9020315 L135.347858,15.9645335 C134.884047,15.5007227 134.884047,14.7491673 135.347858,14.2853565 L141.285357,8.34785822 C141.749167,7.88404726 142.500723,7.88404726 142.964534,8.34785822 C143.428344,8.81166915 143.428344,9.56322445 142.964534,10.0270354 L139.025835,13.9657342 C145.890321,14.1802229 153.999941,15.9706558 153.999941,25.8124413 Z" id="Redo" transform="translate(144.499970, 17.499970) scale(-1, 1) translate(-144.499970, -17.499970) "></path>
            </g>
        </g>
    </g>
</svg>