<?xml version="1.0" encoding="UTF-8"?>
<svg width="21px" height="25px" viewBox="0 0 21 25" version="1.1" xmlns="http://www.w3.org/2000/svg" xmlns:xlink="http://www.w3.org/1999/xlink">
    <!-- Generator: Sketch 49.3 (51167) - http://www.bohemiancoding.com/sketch -->
    <title>Right turn</title>
    <desc>Created with Sketch.</desc>
    <defs></defs>
    <g id="Page-1" stroke="none" stroke-width="1" fill="none" fill-rule="evenodd">
        <g id="Screen-2" transform="translate(-687.000000, -101.000000)" fill="#1D1F23">
            <g id="Group" transform="translate(404.000000, 89.000000)">
                <path d="M284.212658,26.6944272 L294.112192,16.8736687 L304.011517,26.6946356 L294.111982,36.5153942 L284.212658,26.6944272 Z M293.8907,33.710732 L301.077046,26.5812395 L294.353916,19.8050408 L287.167571,26.9345337 L293.8907,33.710732 Z M292.19085,13.6833167 C290.9634,13.3658253 289.681875,13.528381 288.581475,14.1430444 C287.481075,14.7582158 286.6941,15.750313 286.36545,16.9379852 L286.289325,17.2128055 L288.570975,17.8041017 L285.08445,20.5817709 L283.5,16.489433 L284.767875,16.8181003 L284.844,16.5432795 C285.28185,14.9629342 286.329225,13.6416619 287.793975,12.8238039 C289.258725,12.005438 290.9655,11.7875118 292.59825,12.2116804 L293.358975,12.4087791 L292.951575,13.8804155 L292.19085,13.6833167 Z" id="Right-turn" transform="translate(293.755758, 24.257697) scale(-1, 1) translate(-293.755758, -24.257697) "></path>
            </g>
        </g>
    </g>
</svg>