<?xml version="1.0" encoding="UTF-8"?>
<svg width="19px" height="19px" viewBox="0 0 19 19" version="1.1" xmlns="http://www.w3.org/2000/svg" xmlns:xlink="http://www.w3.org/1999/xlink">
    <!-- Generator: Sketch 49.3 (51167) - http://www.bohemiancoding.com/sketch -->
    <title>Undo icon</title>
    <desc>Created with Sketch.</desc>
    <defs></defs>
    <g id="Page-1" stroke="none" stroke-width="1" fill="none" fill-rule="evenodd">
        <g id="Step-1" transform="translate(-99.000000, -84.000000)" fill="#1D1F23">
            <g id="Group" transform="translate(0.000000, 76.000000)">
                <path d="M117.999941,25.8124413 C117.999941,26.4681522 117.468785,26.999941 116.812441,26.999941 C116.156097,26.999941 115.624942,26.4681522 115.624942,25.8124413 C115.624942,17.3561772 108.007,16.4291886 103.06869,16.3270113 L106.964534,20.2228545 C107.428344,20.6866648 107.428344,21.4382201 106.964534,21.9020315 C106.732523,22.1340425 106.428733,22.2499422 106.124945,22.2499422 C105.821156,22.2499422 105.517368,22.1340425 105.285357,21.9020315 L99.3478582,15.9645335 C98.8840473,15.5007227 98.8840473,14.7491673 99.3478582,14.2853565 L105.285357,8.34785822 C105.749167,7.88404726 106.500723,7.88404726 106.964534,8.34785822 C107.428344,8.81166915 107.428344,9.56322445 106.964534,10.0270354 L103.025835,13.9657342 C109.890321,14.1802229 117.999941,15.9706558 117.999941,25.8124413 Z" id="Undo-icon"></path>
            </g>
        </g>
    </g>
</svg>