<?xml version="1.0" encoding="UTF-8"?>
<svg width="18px" height="18px" viewBox="0 0 18 18" version="1.1" xmlns="http://www.w3.org/2000/svg" xmlns:xlink="http://www.w3.org/1999/xlink">
    <!-- Generator: Sketch 49.3 (51167) - http://www.bohemiancoding.com/sketch -->
    <title>Zoom in</title>
    <desc>Created with Sketch.</desc>
    <defs></defs>
    <g id="Page-1" stroke="none" stroke-width="1" fill="none" fill-rule="evenodd">
        <g id="Step-1" transform="translate(-181.000000, -84.000000)" fill="#1D1F23">
            <g id="Group" transform="translate(0.000000, 76.000000)">
                <g id="Zoom-in" transform="translate(181.000000, 8.000000)">
                    <path d="M17.3295107,16.2292742 L13.750177,12.5905053 C13.9280158,12.3576921 14.094763,12.1155821 14.2459451,11.8627909 C14.3093756,11.7567694 14.3702761,11.6489666 14.4286475,11.5397805 C14.5453903,11.3212082 14.6522094,11.0961096 14.7481335,10.8654719 C14.9880395,10.2886811 15.1610136,9.67588998 15.2569377,9.03758273 C15.2952683,8.78221948 15.3213405,8.52270292 15.3345711,8.2598242 C15.3411869,8.12828555 15.3444948,7.99595574 15.3444948,7.86283478 C15.3444948,3.60237343 11.9470857,0.148549446 7.75621445,0.148549446 C7.6252677,0.148549446 7.49509982,0.151912083 7.36570979,0.158637358 C7.10712419,0.171890105 6.85184701,0.1983956 6.60065559,0.237560434 C5.97257953,0.33507691 5.36999183,0.510923054 4.80262227,0.754813167 C4.57555746,0.852329668 4.35432984,0.960923034 4.1393286,1.07960438 C4.03173062,1.13894503 3.92588382,1.20085713 3.82159374,1.26534062 C3.508723,1.45859339 3.21063982,1.67419781 2.92948433,1.91017585 C2.74211207,2.06742857 2.56232844,2.23358234 2.39052186,2.4080438 C2.2187154,2.58250538 2.05547014,2.76527465 1.90078595,2.95595602 C0.818191285,4.28914277 0.167934064,5.99874727 0.167934064,7.86263725 C0.167934064,7.99575822 0.171241776,8.12808749 0.1778572,8.25962615 C0.190893475,8.52250539 0.216966029,8.78202196 0.255491141,9.03738468 C0.351414794,9.67588998 0.524388648,10.288483 0.764295064,10.8652749 C0.860218725,11.0961096 0.967038346,11.3210112 1.0837811,11.5395824 C1.14215252,11.6489666 1.20305334,11.7565714 1.26648352,11.8625928 C1.90020218,12.9230106 2.77830251,13.8156924 3.82139902,14.4599339 C3.92568936,14.5244169 4.03173062,14.5863295 4.13913414,14.6456705 C4.35413538,14.7643515 4.57555746,14.8729445 4.80242729,14.9704613 C5.36979737,15.2143517 5.97257953,15.3901973 6.60046061,15.487714 C6.85165255,15.5266809 7.10692973,15.5531863 7.36551533,15.566637 C7.49490484,15.5733624 7.62507324,15.5767251 7.75601947,15.5767251 C9.49237399,15.5767251 11.0915554,14.9825267 12.3704718,13.9850107 L15.9536968,17.6277354 C16.1435983,17.8209886 16.3926502,17.9175161 16.6415065,17.9175161 C16.8903629,17.9175161 17.1396092,17.8209886 17.3293163,17.6277354 C17.7095083,17.2416262 17.7095083,16.6153844 17.3295107,16.2292742 Z M1.75035165,7.86263744 C1.75035165,4.48140667 4.50118683,1.73076922 7.88221988,1.73076922 C11.2634508,1.73076922 14.0140881,4.48140667 14.0140881,7.86263744 C14.0140881,11.2436703 11.2634508,13.9945057 7.88221988,13.9945057 C4.50118683,13.9945057 1.75035165,11.2436703 1.75035165,7.86263744 Z" id="Shape"></path>
                    <path d="M10.6516487,7.07142875 L8.67362658,7.07142875 L8.67362658,5.09340668 C8.67362658,4.65646161 8.31936304,4.30219787 7.88241782,4.30219787 C7.4454728,4.30219787 7.09120905,4.65646161 7.09120905,5.09340668 L7.09120905,7.07142875 L5.11318698,7.07142875 C4.67624191,7.07142875 4.32197816,7.4256925 4.32197816,7.86263752 C4.32197816,8.29958275 4.67624191,8.65384628 5.11318698,8.65384628 L7.09120905,8.65384628 L7.09120905,10.6318684 C7.09120905,11.0688136 7.4454728,11.4230772 7.88241782,11.4230772 C8.31936304,11.4230772 8.67362658,11.0688136 8.67362658,10.6318684 L8.67362658,8.65384628 L10.6516487,8.65384628 C11.0885939,8.65384628 11.4428575,8.29958275 11.4428575,7.86263752 C11.4428575,7.4256925 11.0885939,7.07142875 10.6516487,7.07142875 Z" id="Shape"></path>
                </g>
            </g>
        </g>
    </g>
</svg>