<?xml version="1.0" encoding="UTF-8"?>
<svg width="19px" height="19px" viewBox="0 0 19 19" version="1.1" xmlns="http://www.w3.org/2000/svg" xmlns:xlink="http://www.w3.org/1999/xlink">
    <!-- Generator: Sketch 49.3 (51167) - http://www.bohemiancoding.com/sketch -->
    <title>Zoom 0ut</title>
    <desc>Created with Sketch.</desc>
    <defs></defs>
    <g id="Page-1" stroke="none" stroke-width="1" fill="none" fill-rule="evenodd">
        <g id="Step-1" transform="translate(-235.000000, -84.000000)" fill="#1D1F23">
            <g id="Group" transform="translate(0.000000, 76.000000)">
                <g id="Zoom-0ut" transform="translate(235.000000, 8.000000)">
                    <path d="M18.2190173,16.3120503 L13.301288,11.4184355 C14.1443273,10.2532888 14.6126826,8.80850699 14.6126826,7.27051361 C14.6126826,3.26241011 11.3341956,0 7.30634128,0 C3.27848637,0 9.09494702e-13,3.26241011 9.09494702e-13,7.27051361 C9.09494702e-13,11.2786174 3.27848637,14.5410272 7.30634128,14.5410272 C8.80507783,14.5410272 10.2101437,14.074969 11.3810318,13.3292756 L16.2987611,18.2228903 C16.8139526,18.7355546 17.7038269,18.7355546 18.2190173,18.2228903 C18.7342088,17.66362 18.7342088,16.8247145 18.2190173,16.3120503 Z M1.8653242,7.37633074 C1.8653242,4.28303078 4.35242296,1.80839078 7.46129638,1.80839078 C10.57017,1.80839078 13.0572686,4.28303078 13.0572686,7.37633074 C13.0572686,10.4696309 10.57017,12.9442707 7.46129638,12.9442707 C4.35242296,12.9442707 1.8653242,10.4696309 1.8653242,7.37633074 Z" id="Shape"></path>
                    <rect id="Rectangle-path" x="4.55859956" y="6.57692573" width="5.84615371" height="1.461538"></rect>
                </g>
            </g>
        </g>
    </g>
</svg>